<svg xmlns="http://www.w3.org/2000/svg" width="38" height="30" viewBox="0 0 38 30" fill="none"><g clip-path="url(#clip0_1_53)"><path d="M29.762 12.8917L24.328 22.5785L13.5225 3.67488C12.2238 1.41167 9.78664 -0.0897216 7.0153 0.00203005C3.07293 0.135487 0 3.56088 0 7.59517V28.9399C0 29.1123 0.182039 29.2235 0.331474 29.1401L7.05334 25.395C7.18919 25.3199 7.27342 25.1726 7.27342 25.0141L7.25983 7.42557L18.0653 26.3292H18.0708C19.3315 28.5229 21.6627 30.002 24.3335 30.002C25.4013 30.002 26.4147 29.7657 27.3276 29.3431C29.0312 28.5535 30.1397 26.9798 31.0852 25.2921L37.9701 13.0141C38.0571 12.8584 37.9484 12.6665 37.7745 12.6665H30.1479C29.9903 12.6665 29.8436 12.7527 29.7648 12.8945L29.762 12.8917Z" fill="#0d0d0d"></path></g><defs><clipPath id="clip0_1_53"><rect width="38" height="30" fill="white"></rect></clipPath></defs></svg>