<svg xmlns="http://www.w3.org/2000/svg" width="184" height="22" viewBox="0 0 184 22" fill="none"><path d="M102.189 0.0274618V16.1994H83.5944V0H78.2852V17.722C78.2852 19.8549 80.0153 21.588 82.1512 21.588H104.099C105.967 21.588 107.48 20.0745 107.48 18.2071V0.0274618H102.189Z" fill="#0d0d0d"></path><path d="M41.8125 16.9922L39.1914 21.5569V21.56H68.3863V16.9922H41.8125Z" fill="#0d0d0d"></path><path d="M46.6875 8.5L44.0664 13.0648H44.4997H68.3853V8.5H46.6875Z" fill="#0d0d0d"></path><path d="M51.5644 0L48.9434 4.56476H68.3863V0H51.5644Z" fill="#0d0d0d"></path><path d="M145.297 7.33876C145.319 3.94266 142.624 0.015625 138.163 0.015625H117.381V21.5609H122.663L122.672 14.5826C122.672 14.5826 130.459 14.5673 133.663 14.5612C134.508 14.5612 135.02 14.7687 135.463 15.5498C136.595 17.5484 138.902 21.5609 138.902 21.5609H145.068C145.068 21.5609 142.191 16.5629 140.742 14.0425C143.494 12.6511 145.279 10.448 145.297 7.33876ZM139.539 7.26248C139.539 8.61116 138.331 9.95983 136.842 9.95983C132.076 9.95983 122.675 9.95983 122.675 9.95983V4.57123C122.675 4.57123 133.016 4.57123 136.842 4.57123C138.182 4.57123 139.292 5.66359 139.5 6.86581C139.521 6.99091 139.539 7.11296 139.539 7.23807C139.539 7.24417 139.539 7.24722 139.539 7.25332C139.539 7.25943 139.539 7.26553 139.539 7.26858V7.26248Z" fill="#0d0d0d"></path><path d="M152.334 21.5683L164.011 1.22223C164.442 0.471611 165.241 0.0078125 166.108 0.0078125H170.126C170.987 0.0078125 171.786 0.46856 172.216 1.21308L184 21.5683H177.761L168.112 4.80752L158.47 21.5683H152.337H152.334Z" fill="#0d0d0d"></path><path d="M35.148 0L25.5303 16.7151L20.8221 3.78667L20.5231 2.96282L19.9311 1.34258C19.8976 1.25104 19.8579 1.16255 19.803 1.08321C19.507 0.637723 19.0737 0.311233 18.5825 0.14036C18.5855 0.125104 18.5916 0.109847 18.5947 0.0945905L18.5764 0.137309C18.3262 0.0518722 18.0637 0.00305131 17.7891 0.00305131H13.7705C12.904 0.00305131 12.1076 0.46685 11.6743 1.21747L0 21.5605H6.13313L15.7508 4.84548L21.3591 20.2393C21.3927 20.3217 21.4293 20.4041 21.4782 20.4804C21.9236 21.1517 22.6773 21.5605 23.492 21.5605H27.5106C28.3772 21.5605 29.1735 21.0967 29.6068 20.3461L41.2811 0H35.148Z" fill="#0d0d0d"></path></svg>